<svg width="22" height="26" viewBox="0 0 22 26" fill="none" xmlns="http://www.w3.org/2000/svg">
<path d="M14.535 12.375C14.535 13.1375 13.9725 13.7625 13.26 13.7625C12.56 13.7625 11.985 13.1375 11.985 12.375C11.985 11.6125 12.5475 10.9875 13.26 10.9875C13.9725 10.9875 14.535 11.6125 14.535 12.375ZM8.69749 10.9875C7.98499 10.9875 7.42249 11.6125 7.42249 12.375C7.42249 13.1375 7.99749 13.7625 8.69749 13.7625C9.40999 13.7625 9.97249 13.1375 9.97249 12.375C9.98499 11.6125 9.40999 10.9875 8.69749 10.9875ZM21.8975 3.075V25.5C18.7484 22.7171 19.7555 23.6383 16.0975 20.2375L16.76 22.55H2.58499C1.17249 22.55 0.0224915 21.4 0.0224915 19.975V3.075C0.0224915 1.65 1.17249 0.5 2.58499 0.5H19.335C20.7475 0.5 21.8975 1.65 21.8975 3.075ZM18.335 14.925C18.335 10.9 16.535 7.6375 16.535 7.6375C14.735 6.2875 13.0225 6.325 13.0225 6.325L12.8475 6.525C14.9725 7.175 15.96 8.1125 15.96 8.1125C12.9907 6.48511 9.50279 6.48481 6.62249 7.75C6.15999 7.9625 5.88499 8.1125 5.88499 8.1125C5.88499 8.1125 6.92249 7.125 9.17249 6.475L9.04749 6.325C9.04749 6.325 7.33499 6.2875 5.53499 7.6375C5.53499 7.6375 3.73499 10.9 3.73499 14.925C3.73499 14.925 4.78499 16.7375 7.54749 16.825C7.54749 16.825 8.00999 16.2625 8.38499 15.7875C6.79749 15.3125 6.19749 14.3125 6.19749 14.3125C6.38138 14.4412 6.6846 14.6081 6.70999 14.625C8.81985 15.8065 11.8168 16.1937 14.51 15.0625C14.9475 14.9 15.435 14.6625 15.9475 14.325C15.9475 14.325 15.3225 15.35 13.685 15.8125C14.06 16.2875 14.51 16.825 14.51 16.825C17.2725 16.7375 18.335 14.925 18.335 14.925Z" fill="white" fill-opacity="0.5"/>
</svg>
