<svg width="24" height="24" viewBox="0 0 24 24" fill="none" xmlns="http://www.w3.org/2000/svg">
<path d="M11.9653 5.89642C8.58978 5.89642 5.86708 8.61911 5.86708 11.9946C5.86708 15.3701 8.58978 18.0929 11.9653 18.0929C15.3409 18.0929 18.0635 15.3701 18.0635 11.9946C18.0635 8.61911 15.3409 5.89642 11.9653 5.89642ZM11.9653 15.9593C9.78395 15.9593 8.00066 14.1812 8.00066 11.9946C8.00066 9.80797 9.77863 8.02999 11.9653 8.02999C14.1519 8.02999 15.9299 9.80797 15.9299 11.9946C15.9299 14.1812 14.1466 15.9593 11.9653 15.9593ZM19.7353 5.64696C19.7353 6.43776 19.0985 7.06935 18.3129 7.06935C17.5222 7.06935 16.8905 6.43246 16.8905 5.64696C16.8905 4.86147 17.5275 4.22458 18.3129 4.22458C19.0985 4.22458 19.7353 4.86147 19.7353 5.64696ZM23.7742 7.09058C23.684 5.18522 23.2488 3.49746 21.853 2.10693C20.4625 0.716383 18.7747 0.281176 16.8693 0.185642C14.9056 0.0741869 9.01968 0.0741869 7.05594 0.185642C5.15588 0.275868 3.46813 0.711078 2.07229 2.10161C0.676438 3.49215 0.246539 5.17992 0.151005 7.08527C0.0395495 9.04901 0.0395495 14.9349 0.151005 16.8986C0.241231 18.8041 0.676438 20.4918 2.07229 21.8823C3.46813 23.2729 5.15058 23.7081 7.05594 23.8036C9.01968 23.915 14.9056 23.915 16.8693 23.8036C18.7747 23.7134 20.4625 23.2782 21.853 21.8823C23.2436 20.4918 23.6787 18.8041 23.7742 16.8986C23.8857 14.9349 23.8857 9.05432 23.7742 7.09058ZM21.2374 19.0057C20.8234 20.0459 20.0219 20.8473 18.9764 21.2667C17.4106 21.8876 13.6955 21.7443 11.9653 21.7443C10.2351 21.7443 6.51458 21.8823 4.95421 21.2667C3.91396 20.8526 3.11254 20.0512 2.69325 19.0057C2.07229 17.44 2.21559 13.7248 2.21559 11.9946C2.21559 10.2644 2.07759 6.54392 2.69325 4.98354C3.10723 3.94329 3.90864 3.14187 4.95421 2.72258C6.51989 2.10161 10.2351 2.24492 11.9653 2.24492C13.6955 2.24492 17.416 2.10693 18.9764 2.72258C20.0166 3.13656 20.818 3.93798 21.2374 4.98354C21.8582 6.54922 21.715 10.2644 21.715 11.9946C21.715 13.7248 21.8582 17.4454 21.2374 19.0057Z" fill="white" fill-opacity="0.5"/>
</svg>
