<svg width="21" height="21" viewBox="0 0 21 21" fill="none" xmlns="http://www.w3.org/2000/svg">
<path d="M20.3666 17.793L16.472 13.8984C16.2962 13.7227 16.058 13.625 15.808 13.625H15.1712C16.2494 12.2461 16.89 10.5117 16.89 8.625C16.89 4.13672 13.2533 0.5 8.76498 0.5C4.2767 0.5 0.639984 4.13672 0.639984 8.625C0.639984 13.1133 4.2767 16.75 8.76498 16.75C10.6517 16.75 12.3861 16.1094 13.765 15.0312V15.668C13.765 15.918 13.8627 16.1562 14.0384 16.332L17.933 20.2266C18.3002 20.5937 18.8939 20.5937 19.2572 20.2266L20.3627 19.1211C20.7298 18.7539 20.7298 18.1602 20.3666 17.793ZM8.76498 13.625C6.00326 13.625 3.76498 11.3906 3.76498 8.625C3.76498 5.86328 5.99935 3.625 8.76498 3.625C11.5267 3.625 13.765 5.85937 13.765 8.625C13.765 11.3867 11.5306 13.625 8.76498 13.625Z" fill="white" fill-opacity="0.5"/>
</svg>
