<svg width="24" height="18" viewBox="0 0 24 18" fill="none" xmlns="http://www.w3.org/2000/svg">
<path d="M23.3166 3.27428C23.0439 2.2478 22.2407 1.43938 21.2209 1.16503C19.3724 0.666504 11.96 0.666504 11.96 0.666504C11.96 0.666504 4.54766 0.666504 2.69909 1.16503C1.67926 1.43942 0.876052 2.2478 0.603432 3.27428C0.108124 5.13482 0.108124 9.01668 0.108124 9.01668C0.108124 9.01668 0.108124 12.8986 0.603432 14.7591C0.876052 15.7856 1.67926 16.5603 2.69909 16.8347C4.54766 17.3332 11.96 17.3332 11.96 17.3332C11.96 17.3332 19.3723 17.3332 21.2209 16.8347C22.2407 16.5603 23.0439 15.7856 23.3166 14.7591C23.8119 12.8986 23.8119 9.01668 23.8119 9.01668C23.8119 9.01668 23.8119 5.13482 23.3166 3.27428ZM9.53569 12.5412V5.49225L15.731 9.01677L9.53569 12.5412Z" fill="white" fill-opacity="0.5"/>
</svg>
