<svg width="133" height="27" viewBox="0 0 133 27" fill="none" xmlns="http://www.w3.org/2000/svg">
<g clip-path="url(#clip0_1_412)">
<path d="M14.425 7.6C14.425 8.61667 14.1917 9.55 13.725 10.4C13.2583 11.2333 12.5417 11.9083 11.575 12.425C10.6083 12.9417 9.40832 13.2 7.97499 13.2H5.32499V19.5H1.04999V1.95H7.97499C9.37499 1.95 10.5583 2.19167 11.525 2.675C12.4917 3.15833 13.2167 3.825 13.7 4.675C14.1833 5.525 14.425 6.5 14.425 7.6ZM7.64999 9.8C8.46666 9.8 9.07499 9.60833 9.47499 9.225C9.87499 8.84167 10.075 8.3 10.075 7.6C10.075 6.9 9.87499 6.35833 9.47499 5.975C9.07499 5.59167 8.46666 5.4 7.64999 5.4H5.32499V9.8H7.64999Z" fill="white"/>
<path d="M22.3256 19.7C21.1089 19.7 20.0256 19.4917 19.0756 19.075C18.1256 18.6583 17.3756 18.0917 16.8256 17.375C16.2756 16.6417 15.9672 15.825 15.9006 14.925H20.1256C20.1756 15.4083 20.4006 15.8 20.8006 16.1C21.2006 16.4 21.6922 16.55 22.2756 16.55C22.8089 16.55 23.2172 16.45 23.5006 16.25C23.8006 16.0333 23.9506 15.7583 23.9506 15.425C23.9506 15.025 23.7422 14.7333 23.3256 14.55C22.9089 14.35 22.2339 14.1333 21.3006 13.9C20.3006 13.6667 19.4672 13.425 18.8006 13.175C18.1339 12.9083 17.5589 12.5 17.0756 11.95C16.5922 11.3833 16.3506 10.625 16.3506 9.675C16.3506 8.875 16.5672 8.15 17.0006 7.5C17.4506 6.83333 18.1006 6.30833 18.9506 5.925C19.8172 5.54167 20.8422 5.35 22.0256 5.35C23.7756 5.35 25.1506 5.78333 26.1506 6.65C27.1672 7.51667 27.7506 8.66667 27.9006 10.1H23.9506C23.8839 9.61667 23.6672 9.23333 23.3006 8.95C22.9506 8.66667 22.4839 8.525 21.9006 8.525C21.4006 8.525 21.0172 8.625 20.7506 8.825C20.4839 9.00833 20.3506 9.26667 20.3506 9.6C20.3506 10 20.5589 10.3 20.9756 10.5C21.4089 10.7 22.0756 10.9 22.9756 11.1C24.0089 11.3667 24.8506 11.6333 25.5006 11.9C26.1506 12.15 26.7172 12.5667 27.2006 13.15C27.7006 13.7167 27.9589 14.4833 27.9756 15.45C27.9756 16.2667 27.7422 17 27.2756 17.65C26.8256 18.2833 26.1672 18.7833 25.3006 19.15C24.4506 19.5167 23.4589 19.7 22.3256 19.7Z" fill="white"/>
<path d="M44.841 5.55L36.091 26.125H31.491L34.691 19.025L29.016 5.55H33.791L37.016 14.275L40.216 5.55H44.841Z" fill="white"/>
<path d="M45.5369 12.525C45.5369 11.075 45.8286 9.80833 46.4119 8.725C47.0119 7.64167 47.8369 6.80833 48.8869 6.225C49.9536 5.64167 51.1702 5.35 52.5369 5.35C54.2869 5.35 55.7452 5.80833 56.9119 6.725C58.0952 7.64167 58.8702 8.93333 59.2369 10.6H54.6869C54.3036 9.53333 53.5619 9 52.4619 9C51.6786 9 51.0536 9.30833 50.5869 9.925C50.1202 10.525 49.8869 11.3917 49.8869 12.525C49.8869 13.6583 50.1202 14.5333 50.5869 15.15C51.0536 15.75 51.6786 16.05 52.4619 16.05C53.5619 16.05 54.3036 15.5167 54.6869 14.45H59.2369C58.8702 16.0833 58.0952 17.3667 56.9119 18.3C55.7286 19.2333 54.2702 19.7 52.5369 19.7C51.1702 19.7 49.9536 19.4083 48.8869 18.825C47.8369 18.2417 47.0119 17.4083 46.4119 16.325C45.8286 15.2417 45.5369 13.975 45.5369 12.525Z" fill="white"/>
<path d="M70.0986 5.4C71.6986 5.4 72.9819 5.93333 73.9486 7C74.9153 8.05 75.3986 9.5 75.3986 11.35V19.5H71.1486V11.925C71.1486 10.9917 70.9069 10.2667 70.4236 9.75C69.9403 9.23333 69.2903 8.975 68.4736 8.975C67.657 8.975 67.007 9.23333 66.5236 9.75C66.0403 10.2667 65.7986 10.9917 65.7986 11.925V19.5H61.5236V1H65.7986V7.425C66.2319 6.80833 66.8236 6.31667 67.5736 5.95C68.3236 5.58333 69.1653 5.4 70.0986 5.4Z" fill="white"/>
<path d="M84.7193 19.7C83.3527 19.7 82.1193 19.4083 81.0193 18.825C79.936 18.2417 79.0777 17.4083 78.4443 16.325C77.8277 15.2417 77.5193 13.975 77.5193 12.525C77.5193 11.0917 77.836 9.83333 78.4693 8.75C79.1027 7.65 79.9693 6.80833 81.0693 6.225C82.1693 5.64167 83.4027 5.35 84.7693 5.35C86.136 5.35 87.3693 5.64167 88.4693 6.225C89.5693 6.80833 90.436 7.65 91.0693 8.75C91.7027 9.83333 92.0193 11.0917 92.0193 12.525C92.0193 13.9583 91.6943 15.225 91.0443 16.325C90.411 17.4083 89.536 18.2417 88.4193 18.825C87.3193 19.4083 86.086 19.7 84.7193 19.7ZM84.7193 16C85.536 16 86.2277 15.7 86.7943 15.1C87.3777 14.5 87.6693 13.6417 87.6693 12.525C87.6693 11.4083 87.386 10.55 86.8193 9.95C86.2693 9.35 85.586 9.05 84.7693 9.05C83.936 9.05 83.2443 9.35 82.6943 9.95C82.1443 10.5333 81.8693 11.3917 81.8693 12.525C81.8693 13.6417 82.136 14.5 82.6693 15.1C83.2193 15.7 83.9027 16 84.7193 16Z" fill="white"/>
<path d="M105.975 16.4H99.425L98.375 19.5H93.9L100.25 1.94995H105.2L111.55 19.5H107.025L105.975 16.4ZM104.875 13.1L102.7 6.67495L100.55 13.1H104.875Z" fill="url(#paint0_linear_1_412)"/>
<path d="M117.758 7.87495C118.258 7.10828 118.883 6.50828 119.633 6.07495C120.383 5.62495 121.216 5.39995 122.133 5.39995V9.92495H120.958C119.891 9.92495 119.091 10.1583 118.558 10.625C118.024 11.075 117.758 11.875 117.758 13.025V19.5H113.483V5.54995H117.758V7.87495Z" fill="url(#paint1_linear_1_412)"/>
<path d="M131.951 15.875V19.5H129.776C128.226 19.5 127.018 19.125 126.151 18.375C125.284 17.6083 124.851 16.3666 124.851 14.65V9.09995H123.151V5.54995H124.851V2.14995H129.126V5.54995H131.926V9.09995H129.126V14.7C129.126 15.1166 129.226 15.4166 129.426 15.6C129.626 15.7833 129.959 15.875 130.426 15.875H131.951Z" fill="url(#paint2_linear_1_412)"/>
</g>
<defs>
<linearGradient id="paint0_linear_1_412" x1="126.243" y1="1.94995" x2="118.993" y2="25.2389" gradientUnits="userSpaceOnUse">
<stop stop-color="#B75CFF"/>
<stop offset="1" stop-color="#671AE4"/>
</linearGradient>
<linearGradient id="paint1_linear_1_412" x1="126.243" y1="1.94995" x2="118.993" y2="25.2389" gradientUnits="userSpaceOnUse">
<stop stop-color="#B75CFF"/>
<stop offset="1" stop-color="#671AE4"/>
</linearGradient>
<linearGradient id="paint2_linear_1_412" x1="126.243" y1="1.94995" x2="118.993" y2="25.2389" gradientUnits="userSpaceOnUse">
<stop stop-color="#B75CFF"/>
<stop offset="1" stop-color="#671AE4"/>
</linearGradient>
<clipPath id="clip0_1_412">
<rect width="132" height="26" fill="white" transform="translate(0.5 0.5)"/>
</clipPath>
</defs>
</svg>
